ply
format ascii 1.0
comment VCGLIB generated
element vertex 8
property float x
property float y
property float z
property float nx
property float ny
property float nz
property uchar red
property uchar green
property uchar blue
property uchar alpha
property float texture_u
property float texture_v
element face 9
property list uchar int vertex_indices
end_header
0.5974985 0.6592919 0.1269053 0.9826081 0.1353169 0.1271642 255 100 255 255 0.5304884 1.346683
-0.04192357 1.227727 -0.4447073 -0.1461914 -0.198992 -0.9690357 255 100 255 255 0.3350898 0.8919483
-0.1731911 1.559259 0.4092018 -0.392819 0.2213293 0.8925842 255 100 255 255 0.1807088 1.961255
-0.1127501 0.2462196 0.518993 -0.3232595 0.06406508 0.9441393 255 100 255 255 0.06920172 0.2999463
0.9786683 0.864362 -0.4265968 -0.6723988 -0.4112643 -0.6154197 255 100 255 255 0.7754367 0.7116699
0.05822834 2.130889 -0.2673145 -0.09620982 0.5872478 -0.8036689 255 100 255 255 0.1160683 2.189192
-0.4617202 0.1617059 -0.1866863 -0.9819985 0.1597841 0.1007375 255 100 255 255 -0.2014464 1.074009
-1.099265 1.042498 -0.2047891 -0.9562416 0.01484728 -0.2922013 255 100 255 255 -1.271594 0.9169408
3 0 5 2 
3 3 0 2 
3 0 1 5 
3 0 5 4 
3 7 5 1 
3 5 7 2 
3 6 2 1 
3 2 6 3 
3 1 2 7 
