ply
format ascii 1.0
comment VCGLIB generated
element vertex 78
property float x
property float y
property float z
property float nx
property float ny
property float nz
property uchar red
property uchar green
property uchar blue
property uchar alpha
property float texture_u
property float texture_v
element face 99
property list uchar int vertex_indices
end_header
1.214672 0.1278541 0.2772557 0.5816047 -0.7417695 0.3339374 255 100 255 255 1.044081 0.2386602
1.663233 0.337808 -0.0376171 0.5816047 -0.7417695 0.3339374 255 100 255 255 1.610335 0.1880457
1.335245 -0.06637986 -0.36419 0.5816047 -0.7417695 0.3339374 255 100 255 255 1.340233 -0.1505493
-1.008449 0.1455478 0.1536186 0.4253114 -0.82783 -0.3657973 255 100 255 255 -1.187586 0.002882592
-1.510515 -0.07437567 0.0675737 0.4253114 -0.82783 -0.3657973 255 100 255 255 -1.466188 -0.008175259
-1.420502 0.1293785 -0.2888815 0.4253114 -0.82783 -0.3657973 255 100 255 255 -1.257088 0.1138896
-1.061501 -1.895986 0.3132387 -0.6970147 -0.510543 0.5035041 255 100 255 255 -1.072331 -1.91012
-0.2234172 -1.92047 0.1015044 0.4671371 -0.8805168 0.08045561 255 100 255 255 -0.3696871 -1.904611
-1.027618 -1.911822 -0.2443589 -0.4385969 -0.5266005 -0.7282339 255 100 255 255 -1.073165 -1.914347
-0.8422684 -1.163792 -0.078545 -0.558451 0.8288198 -0.03450036 255 100 255 255 -0.9273453 -1.394989
-0.4177811 -1.593384 -0.3266571 0.7219574 0.4631104 -0.5141073 255 100 255 255 -0.4987664 -1.744384
-0.6840791 -1.716328 0.5397535 0.3996233 0.4472395 0.8001738 255 100 255 255 -0.6101265 -1.412338
1.027613 -1.911837 -0.2442956 0.4396439 -0.5265039 -0.7276723 255 100 255 255 0.9560047 -1.860325
1.061501 -1.895986 0.3132387 0.6968025 -0.5107952 0.5035419 255 100 255 255 0.9284801 -1.759958
0.8427935 -1.164401 -0.07757237 0.5590301 0.8284569 -0.03383221 255 100 255 255 0.6473999 -1.226013
0.2234172 -1.92047 0.1015044 -0.4668953 -0.8806252 0.08067224 255 100 255 255 0.277095 -1.84956
0.6840791 -1.716328 0.5397535 -0.3994365 0.4472535 0.8002592 255 100 255 255 0.4522397 -1.793059
0.417741 -1.593254 -0.3273636 -0.721328 0.4642671 -0.5139474 255 100 255 255 0.4450188 -1.328156
0.8375155 -0.6443385 -0.3191066 0.7945026 -0.01876469 -0.6069708 255 100 255 255 0.9021497 -0.7898322
0.4759308 -0.7191772 -0.6226436 -0.08634283 -0.1484333 -0.9851459 255 100 255 255 0.6494813 -0.4929536
0.2695332 -1.100569 0.03071682 -0.7829202 -0.460363 -0.4184516 255 100 255 255 0.2077265 -0.8103843
0.635251 -1.178924 -0.5673366 0.001294028 -0.3548735 -0.9349135 255 100 255 255 0.5263813 -1.112508
0.1537803 -0.6419626 -0.2572501 -0.7669805 -0.3962696 -0.5046893 255 100 255 255 0.1859766 -0.3490974
0.8994448 -1.085157 0.0004431937 0.9048984 -0.1590579 -0.3947905 255 100 255 255 0.7767382 -0.565998
-0.7344337 -0.7294385 0.1888474 0.3616996 0.01459739 0.9321804 255 100 255 255 -0.715332 -1.109573
-0.9090415 -1.066426 -0.1497977 -0.7788112 -0.09282512 -0.620352 255 100 255 255 -0.8416643 -0.9270515
-0.5240228 -1.151325 -0.6204596 -0.1319487 -0.09005494 -0.9871574 255 100 255 255 -0.5270979 -1.241502
-0.8464119 -0.5184609 -0.3104186 -0.5965171 0.08700433 -0.7978706 255 100 255 255 -0.8402331 -0.5989122
-0.1600376 -0.5011808 -0.03760109 0.8701842 -0.1406721 0.4722192 255 100 255 255 -0.2788901 -0.6273443
-0.3027824 -1.163446 0.02815665 0.955934 -0.2363402 0.1741652 255 100 255 255 -0.3176398 -1.403319
-0.3198445 -0.6603283 -0.5601919 0.7125399 -0.1443233 -0.6866278 255 100 255 255 -0.5305392 -0.4039858
0.4736755 -0.2635117 0.6078351 0.1751115 -0.5356742 0.8260685 255 100 255 255 0.3873744 -0.2180916
0.3395478 -0.7369444 0.3292646 0.1751115 -0.5356742 0.8260685 255 100 255 255 0.6309911 -0.6140518
0.8437183 -0.4953604 0.3790476 0.1751115 -0.5356742 0.8260685 255 100 255 255 0.7421642 -0.4036911
-1.121899 1.407979 -0.03631408 0 -0.7071068 0.7071068 255 100 255 255 -0.9212905 1.216634
-0.8228148 1.645633 -0.4136521 0 -0.7071068 0.7071068 255 100 255 255 -0.8208629 1.298963
-0.7724216 1.965369 -0.06627266 0 -0.7071068 0.7071068 255 100 255 255 -0.7124583 1.850837
-0.8091772 1.540112 -0.5482544 0 -0.2425356 0.9701425 255 100 255 255 -0.6466308 1.570332
-1.191549 1.755038 -0.09221349 0 -0.2425356 0.9701425 255 100 255 255 -1.282508 1.541948
-1.070369 2.147072 -0.1382289 0 -0.2425356 0.9701425 255 100 255 255 -0.96868 2.114817
0.6247596 1.716857 0.140171 0.6642262 0.43663 0.60676 255 100 255 255 0.5304884 1.346683
0.4857846 1.859137 -0.2977577 0.4183137 0.875966 -0.2402028 255 100 255 255 0.4400308 1.672828
0.2832732 1.550771 0.4030689 0.2919265 0.4382302 0.8501372 255 100 255 255 -0 1.599886
0.4430963 2.439375 -0.7981066 0.4472136 -0.8944272 0 255 100 255 255 0.3584659 2.083653
0.1413794 1.862233 -0.4447321 0.1469267 0.4922616 -0.8579575 255 100 255 255 0.07525619 1.352567
0.1006233 2.268518 0.02600476 0.4471073 0.8705927 -0.2053376 255 100 255 255 0.1821047 2.108163
-0.06130083 0.7108462 0.513299 -0.06963066 -0.09195682 0.9933255 255 100 255 255 0.06920172 0.2999463
0.4385118 0.8506261 0.2082477 0.9313697 -0.1072581 0.3479169 255 100 255 255 0.5207367 0.426075
0.2397935 -0.05030683 0.3395118 0.2541134 -0.4696614 0.8454848 255 100 255 255 0.3663068 -0.4350889
0.7787487 -0.3283325 -0.08403787 0.959039 0.2823716 -0.02259454 255 100 255 255 0.6468482 -0.1623753
0.2206507 -0.03420293 -0.2826322 0.4155572 -0.5450984 -0.7281346 255 100 255 255 0.3121399 -0.6406068
0.6709908 1.601613 -0.47227 0.7351307 0.1332548 -0.6647 255 100 255 255 0.7011501 1.282237
1.02766 0.8338683 -0.440945 0.08721008 -0.0001308943 -0.99619 255 100 255 255 0.8168116 0.8782879
1.109436 0.9606287 -0.01146465 0.8686894 0.3961053 0.2974549 255 100 255 255 1.271594 0.9169408
0.8742505 0.6513684 0.01573946 -0.8793139 -0.3807374 0.2860877 255 100 255 255 1.003828 0.5043955
0.006500456 2.798634 -0.4994617 0 0 0 255 100 255 255 0.04431707 2.650322
0.0825998 2.281653 0.5757908 -0.02032544 0.6623753 0.7488965 255 100 255 255 0.1667038 2.279352
-0.6926854 1.723413 0.06598973 -0.6593112 0.2937215 0.6921246 255 100 255 255 -0.5304884 1.346683
-0.557508 1.12391 -0.2857902 -0.2440944 -0.7693557 -0.5903471 255 100 255 255 -0.5801283 1.317373
-0.5311772 1.867373 -0.3836472 -0.5424322 0.4956028 -0.67834 255 100 255 255 -0.3835557 1.717946
-0.2435482 1.802872 -0.5013695 -0.09786414 0.6025024 -0.7920943 255 100 255 255 -0.265427 1.972215
-0.04656769 1.500744 -0.5783689 -0.05907279 -0.07030633 -0.9957748 255 100 255 255 0.009604281 1.360918
0.3194384 0.8831361 -0.2911786 0.2624455 -0.1728546 -0.9493386 255 100 255 255 -0.2014464 1.074009
-0.2528996 2.168524 0.2542929 -0.6077732 0.7906752 -0.07378764 255 100 255 255 -0.1976035 2.041684
-0.4263618 0.9427348 0.2647859 -0.882962 -0.02420577 0.46882 255 100 255 255 -0.3727677 0.6534299
-0.5164068 0.214905 0.275981 -0.675531 0.07132769 0.7338734 255 100 255 255 -0.3615952 0.3594284
-0.5134153 0.5635601 0.1415912 -0.9781055 0.201585 -0.05170322 255 100 255 255 -0.4483098 0.5398729
-0.1316862 -0.05410978 0.1534399 0.1583807 -0.8204888 0.5492848 255 100 255 255 -0.2029935 0.1435617
-0.3366948 0.7713671 -0.1779162 -0.7088727 0.01671022 -0.7051385 255 100 255 255 -0.3712997 0.3548431
-0.631404 -0.5261383 -0.3524354 -0.3021753 0.02528492 -0.952917 255 100 255 255 -0.7308642 -0.3504618
-0.2583557 0.099944 -0.3334723 -0.09464069 -0.1778677 -0.9794928 255 100 255 255 -0.3324284 -0.2801506
-0.58769 -0.03469755 -0.2010533 -0.8459242 0.2712545 -0.4591659 255 100 255 255 -0.5352805 -0.1402886
-0.7995566 -0.4145816 0.02851971 -0.9634538 0.2380877 0.1227643 255 100 255 255 -0.7116089 -0.144702
-0.3176364 -0.4984206 0.3319432 -0.07376187 0.05755445 0.9956137 255 100 255 255 -0.2935426 -0.6337767
-0.8462519 0.8529854 -0.470263 0.3752674 -0.2508499 -0.8923277 255 100 255 255 -0.7953444 1.049325
-1.194666 0.9731753 -0.1444507 -0.6505341 0.5595188 0.5135602 255 100 255 255 -1.170509 0.9181519
-0.8609937 0.6417542 0.03593744 0.7939371 -0.09950177 0.5998028 255 100 255 255 -0.9549162 0.4821329
-0.09786177 1.643206 0.3820358 -0.1261479 0.3214529 0.9384853 255 100 255 255 -0.1455853 1.922473
3 2 1 0 
3 3 4 5 
3 8 7 6 
3 8 10 7 
3 6 11 9 
3 9 8 6 
3 10 8 9 
3 7 11 6 
3 11 7 10 
3 9 11 10 
3 12 13 15 
3 12 15 17 
3 13 14 16 
3 14 13 12 
3 17 14 12 
3 15 13 16 
3 16 17 15 
3 14 17 16 
3 23 21 18 
3 21 19 18 
3 21 22 19 
3 20 22 21 
3 26 25 27 
3 30 26 27 
3 28 24 29 
3 28 29 30 
3 30 29 26 
3 32 33 31 
3 34 36 35 
3 35 36 34 
3 37 38 39 
3 38 37 39 
3 46 47 42 
3 47 40 42 
3 51 40 47 
3 47 62 51 
3 51 62 41 
3 42 41 77 
3 51 41 40 
3 41 43 44 
3 44 43 41 
3 44 62 61 
3 44 41 62 
3 42 40 41 
3 45 56 77 
3 45 41 44 
3 77 41 45 
3 47 46 48 
3 48 46 67 
3 67 50 48 
3 47 49 50 
3 62 47 50 
3 70 62 50 
3 47 48 49 
3 51 54 40 
3 40 53 51 
3 51 53 52 
3 53 40 54 
3 54 51 52 
3 42 77 46 
3 57 64 77 
3 46 77 64 
3 58 64 57 
3 74 59 58 
3 59 75 57 
3 77 59 57 
3 61 59 60 
3 68 64 58 
3 59 61 58 
3 61 60 44 
3 60 55 44 
3 59 63 60 
3 63 44 60 
3 45 44 63 
3 66 64 68 
3 64 65 46 
3 66 65 64 
3 62 70 68 
3 67 70 50 
3 67 46 65 
3 66 68 71 
3 66 71 65 
3 73 67 65 
3 71 68 70 
3 71 72 65 
3 67 69 70 
3 70 69 71 
3 71 69 72 
3 65 72 73 
3 74 58 76 
3 59 74 75 
3 57 75 58 
3 75 76 58 
3 60 44 55 
3 77 63 59 
3 45 63 56 
3 61 62 58 
3 68 58 62 
3 56 63 77 
